<svg viewBox="0 0 800 650" xmlns="http://www.w3.org/2000/svg">
  <style>
    .label { font-family: monospace; font-size: 10px; }
    .label-small { font-family: monospace; font-size: 8px; }
    .title { font-family: sans-serif; font-size: 14px; font-weight: bold; }
    .zone-label { font-family: sans-serif; font-size: 9px; fill: #666; }
    .trace-power { stroke: #cc0000; stroke-width: 2.5; fill: none; }
    .trace-gnd { stroke: #000; stroke-width: 3; fill: none; }
    .trace-signal { stroke: #0066cc; stroke-width: 1.5; fill: none; stroke-dasharray: 4,2; }
    .trace-i2c { stroke: #009900; stroke-width: 1.5; fill: none; }
    .dim-text { font-family: sans-serif; font-size: 9px; fill: #888; }
  </style>

  <!-- Title -->
  <text x="400" y="25" class="title" font-size="16" text-anchor="middle">Solar Charger Perfboard Layout</text>
  <text x="400" y="42" class="dim-text" text-anchor="middle">Board: 90x70mm | Grid: 31x24 holes | Pitch: 2.54mm</text>

  <!-- Board outline - 90x70mm scaled at 8px/mm = 720x560, centered -->
  <rect x="40" y="55" width="720" height="560" fill="#c4a574" stroke="#8b7355" stroke-width="3" rx="3"/>

  <!-- Perfboard holes - 31x24 grid at 2.54mm pitch (20.32px) -->
  <!-- Starting 10.16px (half pitch) from edge for centering -->
  <defs>
    <pattern id="holes" width="20.32" height="20.32" patternUnits="userSpaceOnUse">
      <circle cx="10.16" cy="10.16" r="1.8" fill="#8b7355"/>
    </pattern>
  </defs>
  <rect x="50" y="65" width="630" height="467" fill="url(#holes)"/>

  <!-- Zone labels -->
  <text x="100" y="82" class="zone-label">SOLAR INPUT</text>
  <text x="580" y="82" class="zone-label">LOAD OUTPUT</text>
  <text x="100" y="590" class="zone-label">POWER REG</text>
  <text x="350" y="590" class="zone-label">MCU ZONE</text>

  <!-- Ground bus (heavy black line along bottom) -->
  <path d="M 55 555 L 745 555" class="trace-gnd"/>
  <text x="680" y="575" class="label">GND BUS</text>

  <!-- 12V power rail (along left side) -->
  <path d="M 70 100 L 70 520" class="trace-power"/>
  <text x="55" y="95" class="label" fill="#cc0000">+12V</text>

  <!-- Solar input terminal -->
  <rect x="55" y="110" width="40" height="32" fill="#4a4a4a" stroke="#000" stroke-width="2"/>
  <text x="60" y="130" class="label" fill="white">SOL+</text>
  <rect x="55" y="150" width="40" height="32" fill="#4a4a4a" stroke="#000" stroke-width="2"/>
  <text x="60" y="170" class="label" fill="white">SOL-</text>

  <!-- Voltage divider R1, R2 -->
  <rect x="110" y="115" width="6" height="20" fill="#d4a574" stroke="#000"/>
  <text x="120" y="125" class="label-small">R1 220k</text>
  <rect x="110" y="140" width="6" height="20" fill="#d4a574" stroke="#000"/>
  <text x="120" y="150" class="label-small">R2 22k</text>

  <!-- M1 - Charge MOSFET (10x4.5mm = 80x36px) - horizontal orientation -->
  <rect x="110" y="200" width="80" height="36" fill="#333" stroke="#000" stroke-width="2"/>
  <text x="125" y="215" class="label" fill="white">M1 IRLZ44N</text>
  <text x="135" y="228" class="label-small" fill="#aaa">Charge</text>
  <!-- M1 pins G/D/S left to right -->
  <text x="115" y="195" class="label-small">G</text>
  <text x="145" y="195" class="label-small">D</text>
  <text x="175" y="195" class="label-small">S</text>

  <!-- R3, R4 gate resistors for M1 -->
  <rect x="100" y="245" width="24" height="6" fill="#d4a574" stroke="#000"/>
  <text x="100" y="260" class="label-small">R3</text>
  <rect x="130" y="245" width="24" height="6" fill="#d4a574" stroke="#000"/>
  <text x="130" y="260" class="label-small">R4</text>

  <!-- IC1 - INA219 Solar (25x22mm = 200x176px) -->
  <rect x="200" y="100" width="200" height="176" fill="#0055aa" stroke="#000" stroke-width="2"/>
  <text x="270" y="180" class="label" fill="white">IC1 INA219</text>
  <text x="280" y="200" class="label" fill="#aaa">Solar</text>
  <text x="280" y="220" class="label-small" fill="#ccc">Addr: 0x40</text>
  <text x="210" y="120" class="label-small" fill="white">VIN+ VIN- SDA SCL GND VCC</text>

  <!-- D1 - Schottky diode -->
  <polygon points="210,295 240,310 210,325 210,295" fill="#333" stroke="#000" stroke-width="2"/>
  <line x1="240" y1="310" x2="260" y2="310" stroke="#000" stroke-width="2"/>
  <line x1="240" y1="295" x2="240" y2="325" stroke="#000" stroke-width="2"/>
  <text x="205" y="345" class="label-small">D1 1N5822</text>

  <!-- Battery terminal -->
  <rect x="55" y="420" width="40" height="32" fill="#aa0000" stroke="#000" stroke-width="2"/>
  <text x="60" y="440" class="label" fill="white">BAT+</text>
  <rect x="55" y="460" width="40" height="32" fill="#000" stroke="#000" stroke-width="2"/>
  <text x="60" y="480" class="label" fill="white">BAT-</text>

  <!-- LM2596 Buck Converter -->
  <rect x="110" y="450" width="72" height="48" fill="#006600" stroke="#000" stroke-width="2"/>
  <text x="118" y="472" class="label" fill="white">LM2596</text>
  <text x="118" y="488" class="label-small" fill="#aaa">12V-5V</text>

  <!-- Heltec WiFi LoRa 32 V3 (50.2x25.5mm = 402x204px) - LANDSCAPE orientation -->
  <!-- Headers on the long (50.2mm) sides TOP and BOTTOM -->
  <rect x="280" y="360" width="402" height="204" fill="#1a1a2e" stroke="#000" stroke-width="2"/>
  <!-- OLED display area -->
  <rect x="380" y="405" width="100" height="50" fill="#222" stroke="#444"/>
  <text x="405" y="435" class="label" fill="#0ff">OLED</text>
  <!-- USB port indicator -->
  <rect x="660" y="445" width="18" height="30" fill="#666" stroke="#000"/>
  <text x="662" y="485" class="label-small" fill="#aaa">USB</text>
  <!-- Board label -->
  <text x="340" y="540" class="label" fill="white">Heltec WiFi LoRa 32 V3</text>
  <text x="380" y="555" class="label-small" fill="#888">50.2 x 25.5mm</text>

  <!-- Header J3 pins (TOP edge - 18 pins along 50.2mm) -->
  <!-- Pin 1 at left (GND), Pin 18 at right (GPIO7) -->
  <!-- Pins at 2.54mm pitch (20.32px), starting at x=308 -->
  <text x="400" y="348" class="label-small" fill="#666" text-anchor="middle">Header J3 (Top)</text>
  <text x="308" y="355" class="label-small" text-anchor="middle">GND(1)</text>
  <text x="430" y="355" class="label-small" text-anchor="middle">G1(12)</text>
  <text x="450" y="355" class="label-small" text-anchor="middle">G2(13)</text>
  <text x="511" y="355" class="label-small" text-anchor="middle">G38(11)</text>
  <text x="613" y="355" class="label-small" text-anchor="middle">G5(16)</text>
  <text x="653" y="355" class="label-small" text-anchor="middle">G7(18)</text>

  <!-- Header J2 pins (BOTTOM edge - 18 pins along 50.2mm) -->
  <!-- Pin 1 at left (GND), Pin 18 at right (GPIO19) -->
  <text x="400" y="582" class="label-small" fill="#666" text-anchor="middle">Header J2 (Bottom)</text>
  <text x="308" y="575" class="label-small" text-anchor="middle">GND(1)</text>
  <text x="328" y="575" class="label-small" text-anchor="middle">5V(2)</text>
  <text x="572" y="575" class="label-small" text-anchor="middle">G48(14)</text>
  <text x="653" y="575" class="label-small" text-anchor="middle">G19(18)</text>

  <!-- IC2 - INA219 Load (25x22mm = 200x176px) -->
  <rect x="520" y="100" width="200" height="176" fill="#0055aa" stroke="#000" stroke-width="2"/>
  <text x="590" y="180" class="label" fill="white">IC2 INA219</text>
  <text x="600" y="200" class="label" fill="#aaa">Load</text>
  <text x="600" y="220" class="label-small" fill="#ccc">Addr: 0x41</text>
  <text x="530" y="120" class="label-small" fill="white">VIN+ VIN- SDA SCL GND VCC</text>

  <!-- M2 - Load MOSFET (10x4.5mm = 80x36px) - horizontal orientation -->
  <rect x="610" y="290" width="80" height="36" fill="#333" stroke="#000" stroke-width="2"/>
  <text x="620" y="305" class="label" fill="white">M2 IRLZ44N</text>
  <text x="635" y="318" class="label-small" fill="#aaa">Load</text>
  <!-- M2 pins -->
  <text x="615" y="285" class="label-small">G</text>
  <text x="645" y="285" class="label-small">D</text>
  <text x="675" y="285" class="label-small">S</text>

  <!-- R5, R6 gate resistors for M2 -->
  <rect x="700" y="295" width="24" height="6" fill="#d4a574" stroke="#000"/>
  <text x="700" y="290" class="label-small">R5</text>
  <rect x="700" y="310" width="24" height="6" fill="#d4a574" stroke="#000"/>
  <text x="700" y="328" class="label-small">R6</text>

  <!-- Load terminal -->
  <rect x="700" y="110" width="40" height="32" fill="#ff6600" stroke="#000" stroke-width="2"/>
  <text x="702" y="130" class="label" fill="white">LOAD+</text>
  <rect x="700" y="150" width="40" height="32" fill="#000" stroke="#000" stroke-width="2"/>
  <text x="702" y="170" class="label" fill="white">LOAD-</text>

  <!-- DS18B20 Temperature sensor -->
  <rect x="195" y="400" width="50" height="35" fill="#333" stroke="#000" stroke-width="2"/>
  <text x="200" y="418" class="label-small" fill="white">DS18B20</text>
  <text x="207" y="430" class="label-small" fill="#aaa">Temp</text>

  <!-- I2C bus traces (connecting both INA219s to MCU GPIO1/GPIO2) -->
  <!-- GPIO1 (SDA) J3 pin 12 at x=531.52, y=360 -->
  <!-- GPIO2 (SCL) J3 pin 13 at x=551.84, y=360 -->
  <!-- IC1 SDA/SCL at approximately x=300, y=276 -->
  <!-- IC2 SDA/SCL at approximately x=620, y=276 -->
  <path d="M 300 276 L 300 340 L 532 340 L 532 360" class="trace-i2c"/>
  <path d="M 620 276 L 620 340 L 552 340 L 552 360" class="trace-i2c"/>
  <text x="540" y="335" class="label-small" fill="#009900">I2C G1/G2</text>

  <!-- Signal trace GPIO38 to M1 gate -->
  <!-- GPIO38 J3 pin 11 at x=511.2, y=360 -->
  <!-- M1 gate at x=120, y=200 -->
  <path d="M 511 360 L 511 330 L 120 330 L 120 236" class="trace-signal"/>
  <text x="300" y="325" class="label-small" fill="#0066cc">G38→M1</text>

  <!-- Signal trace GPIO48 to M2 gate -->
  <!-- GPIO48 J2 pin 14 at x=572.16, y=564 -->
  <!-- M2 gate at x=620, y=290 -->
  <path d="M 572 564 L 572 580 L 600 580 L 600 320 L 620 320 L 620 326" class="trace-signal"/>
  <text x="580" y="590" class="label-small" fill="#0066cc">G48→M2</text>

  <!-- ADC trace from voltage divider to MCU GPIO5 -->
  <!-- GPIO5 J3 pin 16 at x=612.8, y=360 -->
  <!-- Voltage divider at x=113, y=160 -->
  <path d="M 113 160 L 113 290 L 613 290 L 613 360" class="trace-signal"/>
  <text x="350" y="285" class="label-small" fill="#0066cc">G5 ADC</text>

  <!-- Power trace from LM2596 to MCU 5V -->
  <!-- LM2596 output at x=182, y=474 -->
  <!-- J2 pin 2 (5V) at x=328.32, y=564 -->
  <path d="M 182 474 L 220 474 L 220 580 L 328 580 L 328 564" class="trace-power"/>
  <text x="250" y="590" class="label-small" fill="#cc0000">5V</text>

  <!-- Legend -->
  <rect x="40" y="580" width="180" height="60" fill="white" stroke="#000" rx="3"/>
  <text x="50" y="598" class="title" font-size="11">Legend</text>
  <line x1="50" y1="612" x2="80" y2="612" class="trace-gnd"/>
  <text x="85" y="616" class="label-small">Ground Bus</text>
  <line x1="50" y1="626" x2="80" y2="626" class="trace-power"/>
  <text x="85" y="630" class="label-small">12V Power</text>
  <line x1="120" y1="612" x2="150" y2="612" class="trace-i2c"/>
  <text x="155" y="616" class="label-small">I2C</text>
  <line x1="120" y1="626" x2="150" y2="626" class="trace-signal"/>
  <text x="155" y="630" class="label-small">Signal</text>

  <!-- GPIO Assignment Box -->
  <rect x="560" y="580" width="195" height="60" fill="white" stroke="#000" rx="3"/>
  <text x="570" y="598" class="title" font-size="11">GPIO Assignments</text>
  <text x="570" y="614" class="label-small">G1/G2: I2C (INA219s)</text>
  <text x="570" y="626" class="label-small">G5: Solar ADC | G38: M1 PWM</text>
  <text x="570" y="638" class="label-small">G48: M2 Load Switch</text>

  <!-- Scale reference -->
  <line x1="250" y="600" x2="330" y2="600" stroke="#666" stroke-width="1"/>
  <line x1="250" y1="595" x2="250" y2="605" stroke="#666" stroke-width="1"/>
  <line x1="330" y1="595" x2="330" y2="605" stroke="#666" stroke-width="1"/>
  <text x="275" y="620" class="dim-text">10mm</text>
</svg>
